<?xml version="1.0" standalone="no"?><!DOCTYPE svg PUBLIC "-//W3C//DTD SVG 1.1//EN" "http://www.w3.org/Graphics/SVG/1.1/DTD/svg11.dtd"><svg t="1620441236300" class="icon" viewBox="0 0 1024 1024" version="1.1" xmlns="http://www.w3.org/2000/svg" p-id="7487" data-spm-anchor-id="a313x.7781069.0.i16" xmlns:xlink="http://www.w3.org/1999/xlink" width="48" height="48"><defs><style type="text/css"></style></defs><path d="M225.6 502.4c-17.6 0-35.2 8-46.4 20.8l-28.8-20.8c3.2-8 4.8-17.6 4.8-27.2 0-9.6-1.6-17.6-4.8-25.6l28.8-19.2c11.2 12.8 27.2 20.8 46.4 20.8 33.6 0 60.8-27.2 60.8-60.8s-27.2-60.8-60.8-60.8c-33.6 0-60.8 27.2-60.8 60.8 0 6.4 1.6 11.2 3.2 17.6l-28.8 19.2c-11.2-14.4-28.8-25.6-48-28.8v-33.6c27.2-6.4 48-30.4 48-59.2 0-33.6-27.2-60.8-60.8-60.8s-60.8 27.2-60.8 60.8c0 28.8 20.8 52.8 48 59.2V400c-36.8 6.4-65.6 38.4-65.6 76.8s28.8 70.4 65.6 76.8v36.8c-27.2 6.4-48 30.4-48 59.2 0 33.6 27.2 60.8 60.8 60.8s60.8-27.2 60.8-60.8c0-28.8-20.8-52.8-48-59.2v-36.8c19.2-3.2 36.8-12.8 48-27.2l28.8 20.8c-1.6 4.8-3.2 11.2-3.2 17.6 0 33.6 27.2 60.8 60.8 60.8 33.6 0 60.8-27.2 60.8-60.8 1.6-35.2-27.2-62.4-60.8-62.4z m0-142.4c16 0 28.8 12.8 28.8 28.8s-12.8 28.8-28.8 28.8-28.8-12.8-28.8-28.8 12.8-28.8 28.8-28.8zM48 305.6c0-16 12.8-28.8 28.8-28.8s28.8 12.8 28.8 28.8-12.8 28.8-28.8 28.8-28.8-12.8-28.8-28.8z m59.2 342.4c0 16-12.8 28.8-28.8 28.8s-28.8-12.8-28.8-28.8 12.8-28.8 28.8-28.8 28.8 12.8 28.8 28.8z m-28.8-131.2c-22.4 0-41.6-17.6-41.6-41.6s19.2-41.6 41.6-41.6c22.4 0 41.6 17.6 41.6 41.6 0 22.4-19.2 41.6-41.6 41.6z m147.2 75.2c-16 0-28.8-12.8-28.8-28.8s12.8-28.8 28.8-28.8 28.8 12.8 28.8 28.8c1.6 14.4-11.2 28.8-28.8 28.8zM489.6 430.4l-38.4-1.6-44.8 52.8v-99.2H372.8v182.4h33.6v-65.6l48 65.6h36.8l-56-75.2zM609.6 452.8c-11.2-14.4-28.8-25.6-48-25.6-35.2 0-65.6 32-65.6 72s28.8 72 65.6 72c19.2 0 36.8-9.6 48-25.6v19.2h32V432h-32v20.8z m-43.2 86.4c-20.8 0-38.4-17.6-38.4-38.4 0-22.4 17.6-38.4 38.4-38.4 20.8 0 38.4 17.6 38.4 38.4-1.6 20.8-17.6 38.4-38.4 38.4zM985.6 430.4v20.8c-11.2-14.4-28.8-25.6-48-25.6-35.2 0-65.6 32-65.6 72s28.8 72 65.6 72c19.2 0 36.8-9.6 48-25.6v19.2h32v-134.4h-32z m-44.8 107.2c-20.8 0-38.4-17.6-38.4-38.4 0-22.4 17.6-38.4 38.4-38.4 20.8 0 38.4 17.6 38.4 38.4 0 20.8-16 38.4-38.4 38.4zM676.8 430.4h-16v25.6h16v108.8h32v-108.8h20.8v-25.6h-20.8c-3.2-30.4 20.8-25.6 20.8-25.6v-24c-60.8-3.2-52.8 49.6-52.8 49.6zM870.4 430.4l-38.4-1.6-46.4 52.8 1.6-99.2h-33.6v182.4h32v-65.6l48 65.6h36.8l-56-75.2z" p-id="7488" fill="#d4237a" data-spm-anchor-id="a313x.7781069.0.i15" class="selected"></path></svg>