<svg xmlns="http://www.w3.org/2000/svg" xmlns:xlink="http://www.w3.org/1999/xlink" id="processonSvg1000" viewBox="29.25 149.0 782.75 435.5" width="782.75" height="435.5"><defs id="ProcessOnDefs1001"><marker id="ProcessOnMarker1012" markerUnits="userSpaceOnUse" orient="auto" markerWidth="16.23606797749979" markerHeight="10.550836550532098" viewBox="-1.0 -1.3763819204711736 16.23606797749979 10.550836550532098" refX="-1.0" refY="3.8990363547948754"><path id="ProcessOnPath1013" d="M12.0 3.8990363547948754L0.0 7.798072709589751V0.0Z" stroke="#323232" stroke-width="2.0" fill="#323232" transform="matrix(1.0,0.0,0.0,1.0,0.0,0.0)"/></marker><marker id="ProcessOnMarker1027" markerUnits="userSpaceOnUse" orient="auto" markerWidth="16.23606797749979" markerHeight="10.550836550532098" viewBox="-1.0 -1.3763819204711736 16.23606797749979 10.550836550532098" refX="-1.0" refY="3.8990363547948754"><path id="ProcessOnPath1028" d="M12.0 3.8990363547948754L0.0 7.798072709589751V0.0Z" stroke="#323232" stroke-width="2.0" fill="#323232" transform="matrix(1.0,0.0,0.0,1.0,0.0,0.0)"/></marker><marker id="ProcessOnMarker1038" markerUnits="userSpaceOnUse" orient="auto" markerWidth="16.23606797749979" markerHeight="10.550836550532098" viewBox="-1.0 -1.3763819204711736 16.23606797749979 10.550836550532098" refX="-1.0" refY="3.8990363547948754"><path id="ProcessOnPath1039" d="M12.0 3.8990363547948754L0.0 7.798072709589751V0.0Z" stroke="#323232" stroke-width="2.0" fill="#323232" transform="matrix(1.0,0.0,0.0,1.0,0.0,0.0)"/></marker><marker id="ProcessOnMarker1053" markerUnits="userSpaceOnUse" orient="auto" markerWidth="16.23606797749979" markerHeight="10.550836550532098" viewBox="-1.0 -1.3763819204711736 16.23606797749979 10.550836550532098" refX="-1.0" refY="3.8990363547948754"><path id="ProcessOnPath1054" d="M12.0 3.8990363547948754L0.0 7.798072709589751V0.0Z" stroke="#323232" stroke-width="2.0" fill="#323232" transform="matrix(1.0,0.0,0.0,1.0,0.0,0.0)"/></marker><marker id="ProcessOnMarker1060" markerUnits="userSpaceOnUse" orient="auto" markerWidth="16.23606797749979" markerHeight="10.550836550532098" viewBox="-1.0 -1.3763819204711736 16.23606797749979 10.550836550532098" refX="-1.0" refY="3.8990363547948754"><path id="ProcessOnPath1061" d="M12.0 3.8990363547948754L0.0 7.798072709589751V0.0Z" stroke="#323232" stroke-width="2.0" fill="#323232" transform="matrix(1.0,0.0,0.0,1.0,0.0,0.0)"/></marker><marker id="ProcessOnMarker1071" markerUnits="userSpaceOnUse" orient="auto" markerWidth="16.23606797749979" markerHeight="10.550836550532098" viewBox="-1.0 -1.3763819204711736 16.23606797749979 10.550836550532098" refX="-1.0" refY="3.8990363547948754"><path id="ProcessOnPath1072" d="M12.0 3.8990363547948754L0.0 7.798072709589751V0.0Z" stroke="#323232" stroke-width="2.0" fill="#323232" transform="matrix(1.0,0.0,0.0,1.0,0.0,0.0)"/></marker></defs><g id="ProcessOnG1002"><path id="ProcessOnPath1003" d="M29.25 149.0H812.0V584.5H29.25V149.0Z" fill="none"/><g id="ProcessOnG1004"><g id="ProcessOnG1005" transform="matrix(1.0,0.0,0.0,1.0,260.25,410.375)" opacity="1.0"><path id="ProcessOnPath1006" d="M0.0 30.0C0.0 -10.0 214.0 -10.0 214.0 30.0C214.0 70.0 0.0 70.0 0.0 30.0Z" stroke="#323232" stroke-width="2.0" stroke-dasharray="none" opacity="1.0" fill="#ffffff"/><g id="ProcessOnG1007" transform="matrix(1.0,0.0,0.0,1.0,10.0,13.75)"><text id="ProcessOnText1008" fill="#000000" font-size="13" x="96.0" y="13.325" font-family="Courier New" font-weight="normal" font-style="normal" text-decoration="none" family="Courier New" text-anchor="middle" size="13">core manager </text><text id="ProcessOnText1009" fill="#000000" font-size="13" x="96.0" y="29.575" font-family="Courier New" font-weight="normal" font-style="normal" text-decoration="none" family="Courier New" text-anchor="middle" size="13">Django服务用于数据处理</text></g></g><g id="ProcessOnG1010"><path id="ProcessOnPath1011" d="M474.25 440.375C552.4374830135873 440.375 559.5625169864127 333.25 622.5139320225002 333.25" stroke="#323232" stroke-width="2.0" stroke-dasharray="none" fill="none" marker-end="url(#ProcessOnMarker1012)"/><g id="ProcessOnG1014" transform="matrix(1.0,0.0,0.0,1.0,554.0954915028125,378.6875)"><path id="ProcessOnPath1015" d="M0 0H152.0V16.25H0Z" fill="#fff" transform="matrix(1.0,0.0,0.0,1.0,-76.0,0.0)"/><text id="ProcessOnText1016" fill="#000000" font-size="13" x="0.0" y="13.325" font-family="Courier New" font-weight="normal" font-style="normal" text-decoration="none" family="Courier New" text-anchor="middle" size="13">对外提供接口，可以随时检查爬取数据状态</text></g></g><g id="ProcessOnG1017" transform="matrix(1.0,0.0,0.0,1.0,637.75,318.0)" opacity="1.0"><path id="ProcessOnPath1018" d="M0.0 15.25C0.0 -5.083333333333333 91.25 -5.083333333333333 91.25 15.25C91.25 35.583333333333336 0.0 35.583333333333336 0.0 15.25Z" stroke="#323232" stroke-width="2.0" stroke-dasharray="none" opacity="1.0" fill="#ffffff"/><g id="ProcessOnG1019" transform="matrix(1.0,0.0,0.0,1.0,10.0,7.125)"><text id="ProcessOnText1020" fill="#000000" font-size="13" x="34.625" y="13.325" font-family="Courier New" font-weight="normal" font-style="normal" text-decoration="none" family="Courier New" text-anchor="middle" size="13">api app</text></g></g><g id="ProcessOnG1021" transform="matrix(1.0,0.0,0.0,1.0,637.75,418.25)" opacity="1.0"><path id="ProcessOnPath1022" d="M0.0 22.125C0.0 -7.375 121.25 -7.375 121.25 22.125C121.25 51.625 0.0 51.625 0.0 22.125Z" stroke="#323232" stroke-width="2.0" stroke-dasharray="none" opacity="1.0" fill="#ffffff"/><g id="ProcessOnG1023" transform="matrix(1.0,0.0,0.0,1.0,10.0,14.0)"><text id="ProcessOnText1024" fill="#000000" font-size="13" x="49.625" y="13.325" font-family="Courier New" font-weight="normal" font-style="normal" text-decoration="none" family="Courier New" text-anchor="middle" size="13">commands</text></g></g><g id="ProcessOnG1025"><path id="ProcessOnPath1026" d="M474.25 440.375C540.0917511973167 440.375 579.1309011013399 408.4685724848693 624.9952258717699 429.8554583614288" stroke="#323232" stroke-width="2.0" stroke-dasharray="none" fill="none" marker-end="url(#ProcessOnMarker1027)"/><g id="ProcessOnG1029" transform="matrix(1.0,0.0,0.0,1.0,557.1141478459674,418.97014697700456)"><path id="ProcessOnPath1030" d="M0 0H64.0V16.25H0Z" fill="#fff" transform="matrix(1.0,0.0,0.0,1.0,-32.0,0.0)"/><text id="ProcessOnText1031" fill="#000000" font-size="13" x="0.0" y="13.325" font-family="Courier New" font-weight="normal" font-style="normal" text-decoration="none" family="Courier New" text-anchor="middle" size="13">临时数据处理任务</text></g></g><g id="ProcessOnG1032" transform="matrix(1.0,0.0,0.0,1.0,645.75,530.0)" opacity="1.0"><path id="ProcessOnPath1033" d="M0.0 17.25C0.0 -5.75 99.25 -5.75 99.25 17.25C99.25 40.25 0.0 40.25 0.0 17.25Z" stroke="#323232" stroke-width="2.0" stroke-dasharray="none" opacity="1.0" fill="#ffffff"/><g id="ProcessOnG1034" transform="matrix(1.0,0.0,0.0,1.0,10.0,9.125)"><text id="ProcessOnText1035" fill="#000000" font-size="13" x="38.625" y="13.325" font-family="Courier New" font-weight="normal" font-style="normal" text-decoration="none" family="Courier New" text-anchor="middle" size="13">tasks app</text></g></g><g id="ProcessOnG1036"><path id="ProcessOnPath1037" d="M474.25 440.375C555.0802078433552 440.375 564.9197921566448 547.25 630.5139320225002 547.25" stroke="#323232" stroke-width="2.0" stroke-dasharray="none" fill="none" marker-end="url(#ProcessOnMarker1038)"/><g id="ProcessOnG1040" transform="matrix(1.0,0.0,0.0,1.0,558.0954915028125,485.6875)"><path id="ProcessOnPath1041" d="M0 0H224.0V16.25H0Z" fill="#fff" transform="matrix(1.0,0.0,0.0,1.0,-112.0,0.0)"/><text id="ProcessOnText1042" fill="#000000" font-size="13" x="0.0" y="13.325" font-family="Courier New" font-weight="normal" font-style="normal" text-decoration="none" family="Courier New" text-anchor="middle" size="13">定时任务及耗时的一步任务通过redis+celery实现</text></g></g><g id="ProcessOnG1043" transform="matrix(1.0,0.0,0.0,1.0,97.25,256.0)" opacity="1.0"><path id="ProcessOnPath1044" d="M0.0 15.25C0.0 -5.083333333333333 91.25 -5.083333333333333 91.25 15.25C91.25 35.583333333333336 0.0 35.583333333333336 0.0 15.25Z" stroke="#323232" stroke-width="2.0" stroke-dasharray="none" opacity="1.0" fill="#ffffff"/><g id="ProcessOnG1045" transform="matrix(1.0,0.0,0.0,1.0,10.0,7.125)"><text id="ProcessOnText1046" fill="#000000" font-size="13" x="34.625" y="13.325" font-family="Courier New" font-weight="normal" font-style="normal" text-decoration="none" family="Courier New" text-anchor="middle" size="13">redis</text></g></g><g id="ProcessOnG1047" transform="matrix(1.0,0.0,0.0,1.0,593.75,169.0)" opacity="1.0"><path id="ProcessOnPath1048" d="M0.0 15.25C0.0 -5.083333333333333 198.25 -5.083333333333333 198.25 15.25C198.25 35.583333333333336 0.0 35.583333333333336 0.0 15.25Z" stroke="#323232" stroke-width="2.0" stroke-dasharray="none" opacity="1.0" fill="#ffffff"/><g id="ProcessOnG1049" transform="matrix(1.0,0.0,0.0,1.0,10.0,7.125)"><text id="ProcessOnText1050" fill="#000000" font-size="13" x="88.125" y="13.325" font-family="Courier New" font-weight="normal" font-style="normal" text-decoration="none" family="Courier New" text-anchor="middle" size="13">elasticsearch</text></g></g><g id="ProcessOnG1051"><path id="ProcessOnPath1052" d="M367.25 410.375C367.25 282.35327332831355 465.72827332831355 184.25 578.5139320225002 184.25" stroke="#323232" stroke-width="2.0" stroke-dasharray="none" fill="none" marker-end="url(#ProcessOnMarker1053)"/><g id="ProcessOnG1055" transform="matrix(1.0,0.0,0.0,1.0,430.5873440009301,241.17935249811757)"><path id="ProcessOnPath1056" d="M0 0H466.0V16.25H0Z" fill="#fff" transform="matrix(1.0,0.0,0.0,1.0,-233.0,0.0)"/><text id="ProcessOnText1057" fill="#000000" font-size="13" x="0.0" y="13.325" font-family="微软雅黑" font-weight="normal" font-style="normal" text-decoration="none" family="微软雅黑" text-anchor="middle" size="13">存放爬虫的数据用于检索和验证数据，并且通过存储文章的simhash用于数据去重</text></g></g><g id="ProcessOnG1058"><path id="ProcessOnPath1059" d="M367.25 410.375C367.25 319.770516115371 279.104483884629 271.24999999999994 203.7360679774998 271.25" stroke="#323232" stroke-width="2.0" stroke-dasharray="none" fill="none" marker-end="url(#ProcessOnMarker1060)"/><g id="ProcessOnG1062" transform="matrix(1.0,0.0,0.0,1.0,313.75618995392335,298.71081854326405)"><path id="ProcessOnPath1063" d="M0 0H179.0V16.25H0Z" fill="#fff" transform="matrix(1.0,0.0,0.0,1.0,-89.5,0.0)"/><text id="ProcessOnText1064" fill="#000000" font-size="13" x="0.0" y="13.325" font-family="微软雅黑" font-weight="normal" font-style="normal" text-decoration="none" family="微软雅黑" text-anchor="middle" size="13">和celery配合提供异步任务调度</text></g></g><g id="ProcessOnG1065" transform="matrix(1.0,0.0,0.0,1.0,49.25,425.125)" opacity="1.0"><path id="ProcessOnPath1066" d="M0.0 15.25C0.0 -5.083333333333333 91.25 -5.083333333333333 91.25 15.25C91.25 35.583333333333336 0.0 35.583333333333336 0.0 15.25Z" stroke="#323232" stroke-width="2.0" stroke-dasharray="none" opacity="1.0" fill="#ffffff"/><g id="ProcessOnG1067" transform="matrix(1.0,0.0,0.0,1.0,10.0,7.125)"><text id="ProcessOnText1068" fill="#000000" font-size="13" x="34.625" y="13.325" font-family="Courier New" font-weight="normal" font-style="normal" text-decoration="none" family="Courier New" text-anchor="middle" size="13">nginx</text></g></g><g id="ProcessOnG1069"><path id="ProcessOnPath1070" d="M140.5 440.375C188.4 440.375 212.35 440.375 245.0139320225002 440.375" stroke="#323232" stroke-width="2.0" stroke-dasharray="none" fill="none" marker-end="url(#ProcessOnMarker1071)"/></g></g></g></svg>