<svg xmlns="http://www.w3.org/2000/svg" xmlns:xlink="http://www.w3.org/1999/xlink" id="processonSvg1000" viewBox="57.376311302582224 200.77040816326516 1043.6922018169514 525.1135204081629" width="1043.6922018169514" height="525.1135204081629"><defs id="ProcessOnDefs1001"><marker id="ProcessOnMarker1015" markerUnits="userSpaceOnUse" orient="auto" markerWidth="16.23606797749979" markerHeight="10.550836550532098" viewBox="-1.0 -1.3763819204711736 16.23606797749979 10.550836550532098" refX="-1.0" refY="3.8990363547948754"><path id="ProcessOnPath1016" d="M12.0 3.8990363547948754L0.0 7.798072709589751V0.0Z" stroke="#323232" stroke-width="2.0" fill="#323232" transform="matrix(1.0,0.0,0.0,1.0,0.0,0.0)"/></marker><marker id="ProcessOnMarker1026" markerUnits="userSpaceOnUse" orient="auto" markerWidth="16.23606797749979" markerHeight="10.550836550532098" viewBox="-1.0 -1.3763819204711736 16.23606797749979 10.550836550532098" refX="-1.0" refY="3.8990363547948754"><path id="ProcessOnPath1027" d="M12.0 3.8990363547948754L0.0 7.798072709589751V0.0Z" stroke="#323232" stroke-width="2.0" fill="#323232" transform="matrix(1.0,0.0,0.0,1.0,0.0,0.0)"/></marker><marker id="ProcessOnMarker1037" markerUnits="userSpaceOnUse" orient="auto" markerWidth="16.23606797749979" markerHeight="10.550836550532098" viewBox="-1.0 -1.3763819204711736 16.23606797749979 10.550836550532098" refX="-1.0" refY="3.8990363547948754"><path id="ProcessOnPath1038" d="M12.0 3.8990363547948754L0.0 7.798072709589751V0.0Z" stroke="#323232" stroke-width="2.0" fill="#323232" transform="matrix(1.0,0.0,0.0,1.0,0.0,0.0)"/></marker><marker id="ProcessOnMarker1052" markerUnits="userSpaceOnUse" orient="auto" markerWidth="16.23606797749979" markerHeight="10.550836550532098" viewBox="-1.0 -1.3763819204711736 16.23606797749979 10.550836550532098" refX="-1.0" refY="3.8990363547948754"><path id="ProcessOnPath1053" d="M12.0 3.8990363547948754L0.0 7.798072709589751V0.0Z" stroke="#323232" stroke-width="2.0" fill="#323232" transform="matrix(1.0,0.0,0.0,1.0,0.0,0.0)"/></marker><marker id="ProcessOnMarker1059" markerUnits="userSpaceOnUse" orient="auto" markerWidth="16.23606797749979" markerHeight="10.550836550532098" viewBox="-1.0 -1.3763819204711736 16.23606797749979 10.550836550532098" refX="-1.0" refY="3.8990363547948754"><path id="ProcessOnPath1060" d="M12.0 3.8990363547948754L0.0 7.798072709589751V0.0Z" stroke="#323232" stroke-width="2.0" fill="#323232" transform="matrix(1.0,0.0,0.0,1.0,0.0,0.0)"/></marker><marker id="ProcessOnMarker1070" markerUnits="userSpaceOnUse" orient="auto" markerWidth="16.23606797749979" markerHeight="10.550836550532098" viewBox="-1.0 -1.3763819204711736 16.23606797749979 10.550836550532098" refX="-1.0" refY="3.8990363547948754"><path id="ProcessOnPath1071" d="M12.0 3.8990363547948754L0.0 7.798072709589751V0.0Z" stroke="#323232" stroke-width="2.0" fill="#323232" transform="matrix(1.0,0.0,0.0,1.0,0.0,0.0)"/></marker><marker id="ProcessOnMarker1081" markerUnits="userSpaceOnUse" orient="auto" markerWidth="16.23606797749979" markerHeight="10.550836550532098" viewBox="-1.0 -1.3763819204711736 16.23606797749979 10.550836550532098" refX="-1.0" refY="3.8990363547948754"><path id="ProcessOnPath1082" d="M12.0 3.8990363547948754L0.0 7.798072709589751V0.0Z" stroke="#000000" stroke-width="2.0" fill="#000000" transform="matrix(1.0,0.0,0.0,1.0,0.0,0.0)"/></marker><marker id="ProcessOnMarker1093" markerUnits="userSpaceOnUse" orient="auto" markerWidth="16.23606797749979" markerHeight="10.550836550532098" viewBox="-1.0 -1.3763819204711736 16.23606797749979 10.550836550532098" refX="-1.0" refY="3.8990363547948754"><path id="ProcessOnPath1094" d="M12.0 3.8990363547948754L0.0 7.798072709589751V0.0Z" stroke="#323232" stroke-width="2.0" fill="#323232" transform="matrix(1.0,0.0,0.0,1.0,0.0,0.0)"/></marker></defs><g id="ProcessOnG1002"><path id="ProcessOnPath1003" d="M57.376311302582224 200.77040816326516H1101.0685131195337V725.8839285714281H57.37631130258228V200.7704081632652Z" fill="none"/><g id="ProcessOnG1004"><g id="ProcessOnG1005" transform="matrix(1.0,0.0,0.0,1.0,499.3884626116069,451.0)" opacity="1.0"><path id="ProcessOnPath1006" d="M0.0 33.044642857142776C0.0 -11.014880952380926 208.61153738839323 -11.014880952380926 208.61153738839323 33.044642857142776C208.61153738839323 77.10416666666647 0.0 77.10416666666647 0.0 33.044642857142776Z" stroke="#ff0000" stroke-width="2.0" stroke-dasharray="none" opacity="1.0" fill="#ffffff"/><g id="ProcessOnG1007" transform="matrix(1.0,0.0,0.0,1.0,10.0,24.919642857142776)"><text id="ProcessOnText1008" fill="#000000" font-size="13" x="93.30576869419662" y="13.325" font-family="Courier New" font-weight="normal" font-style="normal" text-decoration="none" family="Courier New" text-anchor="middle" size="13">scrapy spider node</text></g></g><g id="ProcessOnG1009" transform="matrix(1.0,0.0,0.0,1.0,549.1942313058034,220.77040816326516)" opacity="1.0"><path id="ProcessOnPath1010" d="M0.0 23.0C0.0 -7.666666666666667 109.0 -7.666666666666667 109.0 23.0C109.0 53.666666666666664 0.0 53.666666666666664 0.0 23.0Z" stroke="#006633" stroke-width="2.0" stroke-dasharray="none" opacity="1.0" fill="#ffffff"/><g id="ProcessOnG1011" transform="matrix(1.0,0.0,0.0,1.0,10.0,14.875)"><text id="ProcessOnText1012" fill="#000000" font-size="13" x="43.5" y="13.325" font-family="Courier New" font-weight="normal" font-style="normal" text-decoration="none" family="Courier New" text-anchor="middle" size="13">redis</text></g></g><g id="ProcessOnG1013"><path id="ProcessOnPath1014" d="M592.318297345945 452.2686372166826C585.8392536357916 378.21282873775215 603.6942313058033 341.10909779972644 603.6942313058033 282.00647614076496" stroke="#323232" stroke-width="2.0" stroke-dasharray="none" fill="none" marker-end="url(#ProcessOnMarker1015)"/><g id="ProcessOnG1017" transform="matrix(1.0,0.0,0.0,1.0,595.5766229345667,353.4051116212354)"><path id="ProcessOnPath1018" d="M0 0H48.0V16.25H0Z" fill="#fff" transform="matrix(1.0,0.0,0.0,1.0,-24.0,0.0)"/><text id="ProcessOnText1019" fill="#000000" font-size="13" x="0.0" y="13.325" font-family="Courier New" font-weight="normal" font-style="normal" text-decoration="none" family="Courier New" text-anchor="middle" size="13">获取爬取任务</text></g></g><g id="ProcessOnG1020" transform="matrix(1.0,0.0,0.0,1.0,194.0067034011125,318.9014993752603)" opacity="1.0"><path id="ProcessOnPath1021" d="M0.0 24.0C0.0 -8.0 190.0 -8.0 190.0 24.0C190.0 56.0 0.0 56.0 0.0 24.0Z" stroke="#323232" stroke-width="2.0" stroke-dasharray="none" opacity="1.0" fill="#ffffff"/><g id="ProcessOnG1022" transform="matrix(1.0,0.0,0.0,1.0,10.0,15.875)"><text id="ProcessOnText1023" fill="#000000" font-size="13" x="84.0" y="13.325" font-family="Courier New" font-weight="normal" font-style="normal" text-decoration="none" family="Courier New" text-anchor="middle" size="13">BeforeMiddleware</text></g></g><g id="ProcessOnG1024"><path id="ProcessOnPath1025" d="M499.3884626116069 484.04464285714283C426.46731362399896 484.04464285714283 456.92785238872057 342.90149937526036 399.2427713786124 342.9014993752604" stroke="#323232" stroke-width="2.0" stroke-dasharray="none" fill="none" marker-end="url(#ProcessOnMarker1026)"/><g id="ProcessOnG1028" transform="matrix(1.0,0.0,0.0,1.0,443.60209150354723,405.3480711162016)"><path id="ProcessOnPath1029" d="M0 0H223.99999999999994V16.25H0Z" fill="#fff" transform="matrix(1.0,0.0,0.0,1.0,-111.99999999999997,0.0)"/><text id="ProcessOnText1030" fill="#000000" font-size="13" x="0.0" y="13.325" font-family="Courier New" font-weight="normal" font-style="normal" text-decoration="none" family="Courier New" text-anchor="middle" size="13">根据url domain 添加源信息及url的hash值</text></g></g><g id="ProcessOnG1031" transform="matrix(1.0,0.0,0.0,1.0,77.37631130258222,461.0446428571428)" opacity="1.0"><path id="ProcessOnPath1032" d="M0.0 23.0C0.0 -7.666666666666667 190.0 -7.666666666666667 190.0 23.0C190.0 53.666666666666664 0.0 53.666666666666664 0.0 23.0Z" stroke="#323232" stroke-width="2.0" stroke-dasharray="none" opacity="1.0" fill="#ffffff"/><g id="ProcessOnG1033" transform="matrix(1.0,0.0,0.0,1.0,10.0,14.875)"><text id="ProcessOnText1034" fill="#000000" font-size="13" x="84.0" y="13.325" font-family="Courier New" font-weight="normal" font-style="normal" text-decoration="none" family="Courier New" text-anchor="middle" size="13">UserAgentMiddleware</text></g></g><g id="ProcessOnG1035"><path id="ProcessOnPath1036" d="M499.3884626116069 484.04464285714283C406.58360208799706 484.04464285714283 360.1811718261922 484.0446428571427 282.61237928008217 484.0446428571428" stroke="#323232" stroke-width="2.0" stroke-dasharray="none" fill="none" marker-end="url(#ProcessOnMarker1037)"/><g id="ProcessOnG1039" transform="matrix(1.0,0.0,0.0,1.0,385.28689545428216,475.9196428571428)"><path id="ProcessOnPath1040" d="M0 0H152.0V16.25H0Z" fill="#fff" transform="matrix(1.0,0.0,0.0,1.0,-76.0,0.0)"/><text id="ProcessOnText1041" fill="#000000" font-size="13" x="0.0" y="13.325" font-family="Courier New" font-weight="normal" font-style="normal" text-decoration="none" family="Courier New" text-anchor="middle" size="13">添加UserAgent及referer</text></g></g><g id="ProcessOnG1042" transform="matrix(1.0,0.0,0.0,1.0,875.9766763848397,295.91964285714295)" opacity="1.0"><path id="ProcessOnPath1043" d="M0.0 23.0C0.0 -7.666666666666667 190.0 -7.666666666666667 190.0 23.0C190.0 53.666666666666664 0.0 53.666666666666664 0.0 23.0Z" stroke="#323232" stroke-width="2.0" stroke-dasharray="none" opacity="1.0" fill="#ffffff"/><g id="ProcessOnG1044" transform="matrix(1.0,0.0,0.0,1.0,10.0,14.875)"><text id="ProcessOnText1045" fill="#000000" font-size="13" x="84.0" y="13.325" font-family="Courier New" font-weight="normal" font-style="normal" text-decoration="none" family="Courier New" text-anchor="middle" size="13">BeforeParsePipeline</text></g></g><g id="ProcessOnG1046" transform="matrix(1.0,0.0,0.0,1.0,878.9766763848397,510.5508056538939)" opacity="1.0"><path id="ProcessOnPath1047" d="M0.0 23.0C0.0 -7.666666666666667 190.0 -7.666666666666667 190.0 23.0C190.0 53.666666666666664 0.0 53.666666666666664 0.0 23.0Z" stroke="#323232" stroke-width="2.0" stroke-dasharray="none" opacity="1.0" fill="#ffffff"/><g id="ProcessOnG1048" transform="matrix(1.0,0.0,0.0,1.0,10.0,14.875)"><text id="ProcessOnText1049" fill="#000000" font-size="13" x="84.0" y="13.325" font-family="Courier New" font-weight="normal" font-style="normal" text-decoration="none" family="Courier New" text-anchor="middle" size="13">SaveImagesPipeline</text></g></g><g id="ProcessOnG1050"><path id="ProcessOnPath1051" d="M708.0 484.04464285714283C802.2188341547885 484.04464285714283 781.7578422300512 318.9196428571432 860.7406084073399 318.9196428571432" stroke="#323232" stroke-width="2.0" stroke-dasharray="none" fill="none" marker-end="url(#ProcessOnMarker1052)"/><g id="ProcessOnG1054" transform="matrix(1.0,0.0,0.0,1.0,790.0838296952323,393.357142857143)"><path id="ProcessOnPath1055" d="M0 0H184.0V16.25H0Z" fill="#fff" transform="matrix(1.0,0.0,0.0,1.0,-92.0,0.0)"/><text id="ProcessOnText1056" fill="#000000" font-size="13" x="0.0" y="13.325" font-family="Courier New" font-weight="normal" font-style="normal" text-decoration="none" family="Courier New" text-anchor="middle" size="13">根据源信息调用不同的解析操作获取需要提取的数据</text></g></g><g id="ProcessOnG1057"><path id="ProcessOnPath1058" d="M708.0 484.04464285714283C779.1998696880432 484.04464285714283 807.7768066967965 533.5508056538941 863.7406084073399 533.5508056538941" stroke="#323232" stroke-width="2.0" stroke-dasharray="none" fill="none" marker-end="url(#ProcessOnMarker1059)"/><g id="ProcessOnG1061" transform="matrix(1.0,0.0,0.0,1.0,791.5838296952323,500.6727242555185)"><path id="ProcessOnPath1062" d="M0 0H152.0V16.249999999999943H0Z" fill="#fff" transform="matrix(1.0,0.0,0.0,1.0,-76.0,0.0)"/><text id="ProcessOnText1063" fill="#000000" font-size="13" x="0.0" y="13.325" font-family="Courier New" font-weight="normal" font-style="normal" text-decoration="none" family="Courier New" text-anchor="middle" size="13">下载图片保存至oss并使用对应链接替换</text></g></g><g id="ProcessOnG1064" transform="matrix(1.0,0.0,0.0,1.0,152.0540497448979,593.0000000000001)" opacity="1.0"><path id="ProcessOnPath1065" d="M0.0 23.0C0.0 -7.666666666666667 190.0 -7.666666666666667 190.0 23.0C190.0 53.666666666666664 0.0 53.666666666666664 0.0 23.0Z" stroke="#323232" stroke-width="2.0" stroke-dasharray="none" opacity="1.0" fill="#ffffff"/><g id="ProcessOnG1066" transform="matrix(1.0,0.0,0.0,1.0,10.0,14.875)"><text id="ProcessOnText1067" fill="#000000" font-size="13" x="84.0" y="13.325" font-family="Courier New" font-weight="normal" font-style="normal" text-decoration="none" family="Courier New" text-anchor="middle" size="13">. . . Middleware</text></g></g><g id="ProcessOnG1068"><path id="ProcessOnPath1069" d="M499.3884626116069 484.04464285714283C417.2506917620776 484.04464285714283 424.191820594427 616.0000000000001 357.2901177223975 616.0000000000001" stroke="#323232" stroke-width="2.0" stroke-dasharray="none" fill="none" marker-end="url(#ProcessOnMarker1070)"/><g id="ProcessOnG1072" transform="matrix(1.0,0.0,0.0,1.0,422.62576467543977,541.8973214285714)"><path id="ProcessOnPath1073" d="M0 0H96.0V16.25H0Z" fill="#fff" transform="matrix(1.0,0.0,0.0,1.0,-48.0,0.0)"/><text id="ProcessOnText1074" fill="#000000" font-size="13" x="0.0" y="13.325" font-family="Courier New" font-weight="normal" font-style="normal" text-decoration="none" family="Courier New" text-anchor="middle" size="13">其他Middleware</text></g></g><g id="ProcessOnG1075" transform="matrix(1.0,0.0,0.0,1.0,891.0685131195337,659.8839285714281)" opacity="1.0"><path id="ProcessOnPath1076" d="M0.0 23.0C0.0 -7.666666666666667 190.0 -7.666666666666667 190.0 23.0C190.0 53.666666666666664 0.0 53.666666666666664 0.0 23.0Z" stroke="#990000" stroke-width="2.0" stroke-dasharray="none" opacity="1.0" fill="#ffffff"/><g id="ProcessOnG1077" transform="matrix(1.0,0.0,0.0,1.0,10.0,14.875)"><text id="ProcessOnText1078" fill="#000000" font-size="13" x="84.0" y="13.325" font-family="Courier New" font-weight="normal" font-style="normal" text-decoration="none" family="Courier New" text-anchor="middle" size="13">CommitContentPipeline</text></g></g><g id="ProcessOnG1079"><path id="ProcessOnPath1080" d="M708.0 484.04464285714283C816.1118990965668 484.04464285714283 782.9566140229668 682.8839285714281 875.8324451420339 682.8839285714281" stroke="#000000" stroke-width="2.0" stroke-dasharray="none" fill="none" marker-end="url(#ProcessOnMarker1081)"/><g id="ProcessOnG1083" transform="matrix(1.0,0.0,0.0,1.0,797.6297480625794,567.2142857142856)"><path id="ProcessOnPath1084" d="M0 0H280.0V32.5H0Z" fill="#fff" transform="matrix(1.0,0.0,0.0,1.0,-140.0,0.0)"/><text id="ProcessOnText1085" fill="#cc0000" font-size="13" x="0.0" y="13.325" font-family="Courier New" font-weight="normal" font-style="normal" text-decoration="none" family="Courier New" text-anchor="middle" size="13">调用api接口提交爬取到的内容,交给后端数据处理服务进行接下来数据处理</text><text id="ProcessOnText1086" fill="#cc0000" font-size="13" x="0.0" y="29.575" font-family="Courier New" font-weight="normal" font-style="normal" text-decoration="none" family="Courier New" text-anchor="middle" size="13">容和标记信息</text></g></g><g id="ProcessOnG1087" transform="matrix(1.0,0.0,0.0,1.0,875.9766763848397,412.09821428571445)" opacity="1.0"><path id="ProcessOnPath1088" d="M0.0 23.0C0.0 -7.666666666666667 190.0 -7.666666666666667 190.0 23.0C190.0 53.666666666666664 0.0 53.666666666666664 0.0 23.0Z" stroke="#323232" stroke-width="2.0" stroke-dasharray="none" opacity="1.0" fill="#ffffff"/><g id="ProcessOnG1089" transform="matrix(1.0,0.0,0.0,1.0,10.0,14.875)"><text id="ProcessOnText1090" fill="#000000" font-size="13" x="84.0" y="13.325" font-family="Courier New" font-weight="normal" font-style="normal" text-decoration="none" family="Courier New" text-anchor="middle" size="13">. . . Pipeline</text></g></g><g id="ProcessOnG1091"><path id="ProcessOnPath1092" d="M708.0 484.04464285714283C777.9850460360727 484.04464285714283 805.991630348767 435.09821428571445 860.7406084073399 435.09821428571445" stroke="#323232" stroke-width="2.0" stroke-dasharray="none" fill="none" marker-end="url(#ProcessOnMarker1093)"/><g id="ProcessOnG1095" transform="matrix(1.0,0.0,0.0,1.0,790.0838296952323,451.44642857142867)"><path id="ProcessOnPath1096" d="M0 0H80.0V16.25H0Z" fill="#fff" transform="matrix(1.0,0.0,0.0,1.0,-40.0,0.0)"/><text id="ProcessOnText1097" fill="#000000" font-size="13" x="0.0" y="13.325" font-family="Courier New" font-weight="normal" font-style="normal" text-decoration="none" family="Courier New" text-anchor="middle" size="13">其他Pipeline</text></g></g></g></g></svg>